<?xml version="1.0" encoding="utf-8"?>
<?xml-stylesheet type="text/xsl" href="rss1.xsl"?>
<rss version="2.0" xmlns:atom="http://www.w3.org/2005/Atom" xmlns:content="http://purl.org/rss/1.0/modules/content/" xmlns:dc="http://purl.org/dc/elements/1.1/" xmlns:media="http://search.yahoo.com/mrss/">
<channel>
 <title>Getty</title>
 <link>http://www.gettyimg.com/</link>
 <atom:link href="http://www.gettyimg.com/" rel="self" type="application/rss+xml" />

 
                <item>
                <title><![CDATA[【Cinema Center】MOVIE - Fantastic Four (2005) (Widescreen DVDRip DivX)]]></title>
                <link><![CDATA[https://sharemania.us/threads/fantastic-four-2005-widescreen-dvdrip-divx.234150/]]></link>
                <description><![CDATA[<article>
<blockquote class="messageText SelectQuoteContainer ugc baseHtml">
<b>Release Name</b><br>
Fantastic.Four.2005.WS.DVDRip.DivX<br>
<br>
<b>Screenshot</b><br>
<img src="https://i.ibb.co/5GfDtrZ/Fantastic-Four-2005-WS-DVDRip-Div-X.jpg" class="bbCodeImage LbImage" alt="[​IMG]" data-url="https://i.ibb.co/5GfDtrZ/Fantastic-Four-2005-WS-DVDRip-Div-X.jpg" style=""><br>
<br>
<div class="ToggleTriggerAnchor bbCodeSpoilerContainer">
<button type="button" class="button bbCodeSpoilerButton ToggleTrigger Tooltip JsOnly" data-target="> .SpoilerTarget"><span>Spoiler: <span class="SpoilerTitle">Media Information</span></span></button>
<div class="SpoilerTarget bbCodeSpoilerText">General<br>
Unique ID : 34087116409186436952908491093577103877 (0x19A4F0981C5D32B4D2D9A18C58A4FA05)<br>
Complete name : Fantastic.Four.2005.WS.DVDRip.DivX.mkv<br>
Format : Matroska<br>
Format version : Version 4<br>
File size : 5.06 GiB<br>
Duration : 1 h 45 min<br>
Overall bit rate mode : Variable<br>
Overall bit rate : 6 843 kb/s<br>
Frame rate : 23.976 FPS<br>
Movie name : Fantastic Four<br>
Encoded date : 2005-12-06 17:00:00 UTC<br>
Writing application : MakeMKV v1.17.5 darwin(arm64-release)<br>
Writing library : libmakemkv v1.17.5 (1.3.10/1.5.2) darwin(arm64-release)<br>
<br>
Video<br>
ID : 1<br>
ID in the original source medium : 224 (0xE0)<br>
Format : MPEG Video<br>
Format version : Version 2<br>
Format profile : Main@Main<br>
Format settings : CustomMatrix / BVOP<br>
Format settings, BVOP : Yes<br>
Format settings, Matrix : Custom<br>
Format settings, GOP : Variable<br>
Codec ID : V_MPEG2<br>
Codec ID/Info : MPEG 1 or 2 Video<br>
Duration : 1 h 45 min<br>
Bit rate mode : Variable<br>
Bit rate : 5 244 kb/s<br>
Maximum bit rate : 9 800 kb/s<br>
Width : 720 pixels<br>
Height : 480 pixels<br>
Display aspect ratio : 16:9<br>
Frame rate mode : Variable<br>
Frame rate : 23.976 (24000/1001) FPS<br>
Standard : Component<br>
Color space : YUV<br>
Chroma subsampling : 4:2:0<br>
Bit depth : 8 bits<br>
Scan type : Progressive<br>
Scan order : 2:3 Pulldown<br>
Compression mode : Lossy<br>
Bits/(Pixel*Frame) : 0.633<br>
Time code of first frame : 00:59:58;00<br>
Time code source : Group of pictures header<br>
GOP, Open/Closed : Open<br>
GOP, Open/Closed of first frame : Closed<br>
Stream size : 3.88 GiB (77%)<br>
Language : English<br>
Default : No<br>
Forced : No<br>
Color primaries : BT.601 NTSC<br>
Transfer characteristics : BT.601<br>
Matrix coefficients : BT.601<br>
Original source medium : DVD-Video<br>
<br>
Audio #1<br>
ID : 2<br>
ID in the original source medium : 189 (0xBD)128 (0x80)<br>
Format : AC-3<br>
Format/Info : Audio Coding 3<br>
Commercial name : Dolby Digital<br>
Codec ID : A_AC3<br>
Duration : 1 h 45 min<br>
Bit rate mode : Constant<br>
Bit rate : 448 kb/s<br>
Channel(s) : 6 channels<br>
Channel layout : L R C LFE Ls Rs<br>
Sampling rate : 48.0 kHz<br>
Frame rate : 31.250 FPS (1536 SPF)<br>
Compression mode : Lossy<br>
Stream size : 339 MiB (7%)<br>
Title : Surround 5.1<br>
Language : English (US)<br>
Service kind : Complete Main<br>
Default : Yes<br>
Forced : No<br>
Original source medium : DVD-Video<br>
<br>
Audio #2<br>
ID : 3<br>
ID in the original source medium : 189 (0xBD)137 (0x89)<br>
Format : DTS<br>
Format/Info : Digital Theater Systems<br>
Codec ID : A_DTS<br>
Duration : 1 h 45 min<br>
Bit rate mode : Constant<br>
Bit rate : 754 kb/s<br>
Channel(s) : 6 channels<br>
Channel layout : C L R Ls Rs LFE<br>
Sampling rate : 48.0 kHz<br>
Frame rate : 93.750 FPS (512 SPF)<br>
Bit depth : 16 bits<br>
Compression mode : Lossy<br>
Stream size : 572 MiB (11%)<br>
Title : Surround 5.1<br>
Language : English<br>
Default : No<br>
Forced : No<br>
Original source medium : DVD-Video<br>
<br>
Audio #3<br>
ID : 4<br>
ID in the original source medium : 189 (0xBD)130 (0x82)<br>
Format : AC-3<br>
Format/Info : Audio Coding 3<br>
Commercial name : Dolby Digital<br>
Format settings : Dolby Surround<br>
Codec ID : A_AC3<br>
Duration : 1 h 45 min<br>
Bit rate mode : Constant<br>
Bit rate : 192 kb/s<br>
Channel(s) : 2 channels<br>
Channel layout : L R<br>
Sampling rate : 48.0 kHz<br>
Frame rate : 31.250 FPS (1536 SPF)<br>
Compression mode : Lossy<br>
Stream size : 145 MiB (3%)<br>
Title : Stereo<br>
Language : Spanish (Latin America)<br>
Service kind : Complete Main<br>
Default : No<br>
Forced : No<br>
Original source medium : DVD-Video<br>
<br>
Audio #4<br>
ID : 5<br>
ID in the original source medium : 189 (0xBD)131 (0x83)<br>
Format : AC-3<br>
Format/Info : Audio Coding 3<br>
Commercial name : Dolby Digital<br>
Format settings : Dolby Surround<br>
Codec ID : A_AC3<br>
Duration : 1 h 45 min<br>
Bit rate mode : Constant<br>
Bit rate : 192 kb/s<br>
Channel(s) : 2 channels<br>
Channel layout : L R<br>
Sampling rate : 48.0 kHz<br>
Frame rate : 31.250 FPS (1536 SPF)<br>
Compression mode : Lossy<br>
Stream size : 145 MiB (3%)<br>
Title : Stereo<br>
Language : English<br>
Service kind : Complete Main<br>
Default : No<br>
Forced : No<br>
Original source medium : DVD-Video<br>
<br>
Text #1<br>
ID : 6<br>
ID in the original source medium : 189 (0xBD)32 (0x20)<br>
Format : VobSub<br>
Codec ID : S_VOBSUB<br>
Codec ID/Info : Picture based subtitle format used on DVDs<br>
Duration : 1 h 45 min<br>
Bit rate : 2 852 b/s<br>
Frame rate : 0.210 FPS<br>
Count of elements : 1335<br>
Stream size : 2.16 MiB (0%)<br>
Language : English<br>
Default : Yes<br>
Forced : No<br>
Original source medium : DVD-Video<br>
<br>
Text #2<br>
ID : 7<br>
ID in the original source medium : 189 (0xBD)34 (0x22)<br>
Format : VobSub<br>
Codec ID : S_VOBSUB<br>
Codec ID/Info : Picture based subtitle format used on DVDs<br>
Duration : 1 h 38 min<br>
Bit rate : 2 300 b/s<br>
Frame rate : 0.183 FPS<br>
Count of elements : 1077<br>
Stream size : 1.62 MiB (0%)<br>
Language : Spanish<br>
Default : No<br>
Forced : No<br>
Original source medium : DVD-Video<br>
<br>
Text #3<br>
ID : 8<br>
ID in the original source medium : 189 (0xBD)36 (0x24)<br>
Format : VobSub<br>
Codec ID : S_VOBSUB<br>
Codec ID/Info : Picture based subtitle format used on DVDs<br>
Duration : 1 h 38 min<br>
Bit rate : 45 b/s<br>
Frame rate : 0.007 FPS<br>
Count of elements : 41<br>
Stream size : 32.8 KiB (0%)<br>
Language : Spanish<br>
Default : No<br>
Forced : No<br>
Original source medium : DVD-Video<br>
<br>
Text #4<br>
ID : 9<br>
ID in the original source medium : 224 (0xE0)<br>
Format : UTF-8<br>
Codec ID : S_TEXT/UTF8<br>
Codec ID/Info : UTF-8 Plain Text<br>
Duration : 1 h 44 min<br>
Bit rate : 120 b/s<br>
Frame rate : 0.227 FPS<br>
Count of elements : 1427<br>
Stream size : 92.0 KiB (0%)<br>
Language : English<br>
Default : No<br>
Forced : No<br>
Original source medium : DVD-Video<br>
<br>
Menu<br>
00:00:00.000 : en:Chapter 01<br>
00:05:06.839 : en:Chapter 02<br>
00:07:58.978 : en:Chapter 03<br>
00:10:36.669 : en:Chapter 04<br>
00:14:37.042 : en:Chapter 05<br>
00:17:15.234 : en:Chapter 06<br>
00:19:21.026 : en:Chapter 07<br>
00:21:26.618 : en:Chapter 08<br>
00:28:20.865 : en:Chapter 09<br>
00:30:52.183 : en:Chapter 10<br>
00:39:41.379 : en:Chapter 11<br>
00:42:50.901 : en:Chapter 12<br>
00:45:38.569 : en:Chapter 13<br>
00:48:12.890 : en:Chapter 14<br>
00:51:52.275 : en:Chapter 15<br>
00:54:54.124 : en:Chapter 16<br>
00:57:14.764 : en:Chapter 17<br>
00:59:21.558 : en:Chapter 18<br>
01:02:58.441 : en:Chapter 19<br>
01:06:27.933 : en:Chapter 20<br>
01:09:57.359 : en:Chapter 21<br>
01:11:47.636 : en:Chapter 22<br>
01:15:59.054 : en:Chapter 23<br>
01:17:41.189 : en:Chapter 24<br>
01:21:30.552 : en:Chapter 25<br>
01:24:26.394 : en:Chapter 26<br>
01:26:39.194 : en:Chapter 27<br>
01:28:03.278 : en:Chapter 28<br>
01:30:34.462 : en:Chapter 29<br>
01:34:35.670 : en:Chapter 30<br>
01:37:20.167 : en:Chapter 31<br>
01:38:19.894 : en:Chapter 32</div>
</div>
<div class="messageTextEndMarker">&nbsp;</div>
</blockquote>
</article>]]></description>
                <author><![CDATA[Austin Zimmermann]]></author>
                </item>

                </channel></rss>